<mxfile host="app.diagrams.net" modified="2023-05-16T03:09:09.445Z" agent="Mozilla/5.0 (Macintosh; Intel Mac OS X 10_15_7) AppleWebKit/537.36 (KHTML, like Gecko) Chrome/112.0.0.0 Safari/537.36 Edg/112.0.1722.68" etag="IwLSpl4SIAl-tP8YBpuG" version="21.2.9" type="github">
  <diagram name="Page-1" id="n9e1tnyn6be5gesAb6AF">
    <mxGraphModel dx="2023" dy="1163" grid="1" gridSize="10" guides="1" tooltips="1" connect="1" arrows="1" fold="1" page="1" pageScale="1" pageWidth="850" pageHeight="1100" math="0" shadow="0">
      <root>
        <mxCell id="0" />
        <mxCell id="1" parent="0" />
        <mxCell id="amxvkPXWKd9jWRE6Z_6H-7" value="" style="shape=umlLifeline;perimeter=lifelinePerimeter;whiteSpace=wrap;html=1;container=1;dropTarget=0;collapsible=0;recursiveResize=0;outlineConnect=0;portConstraint=eastwest;newEdgeStyle={&quot;edgeStyle&quot;:&quot;elbowEdgeStyle&quot;,&quot;elbow&quot;:&quot;vertical&quot;,&quot;curved&quot;:0,&quot;rounded&quot;:0};participant=umlActor;" vertex="1" parent="1">
          <mxGeometry x="90" y="70" width="20" height="590" as="geometry" />
        </mxCell>
        <mxCell id="amxvkPXWKd9jWRE6Z_6H-8" value="Stream" style="shape=umlLifeline;perimeter=lifelinePerimeter;whiteSpace=wrap;html=1;container=1;dropTarget=0;collapsible=0;recursiveResize=0;outlineConnect=0;portConstraint=eastwest;newEdgeStyle={&quot;edgeStyle&quot;:&quot;elbowEdgeStyle&quot;,&quot;elbow&quot;:&quot;vertical&quot;,&quot;curved&quot;:0,&quot;rounded&quot;:0};" vertex="1" parent="1">
          <mxGeometry x="305" y="70" width="70" height="580" as="geometry" />
        </mxCell>
        <mxCell id="amxvkPXWKd9jWRE6Z_6H-9" value="BiteSign" style="shape=umlLifeline;perimeter=lifelinePerimeter;whiteSpace=wrap;html=1;container=1;dropTarget=0;collapsible=0;recursiveResize=0;outlineConnect=0;portConstraint=eastwest;newEdgeStyle={&quot;edgeStyle&quot;:&quot;elbowEdgeStyle&quot;,&quot;elbow&quot;:&quot;vertical&quot;,&quot;curved&quot;:0,&quot;rounded&quot;:0};" vertex="1" parent="1">
          <mxGeometry x="590" y="70" width="70" height="580" as="geometry" />
        </mxCell>
        <mxCell id="amxvkPXWKd9jWRE6Z_6H-18" style="edgeStyle=orthogonalEdgeStyle;rounded=0;orthogonalLoop=1;jettySize=auto;html=1;entryX=0;entryY=0.25;entryDx=0;entryDy=0;exitX=1;exitY=0.667;exitDx=0;exitDy=0;exitPerimeter=0;" edge="1" parent="1" source="amxvkPXWKd9jWRE6Z_6H-11" target="amxvkPXWKd9jWRE6Z_6H-17">
          <mxGeometry relative="1" as="geometry">
            <Array as="points">
              <mxPoint x="350" y="265" />
            </Array>
          </mxGeometry>
        </mxCell>
        <mxCell id="amxvkPXWKd9jWRE6Z_6H-19" value="mode=MANUAL" style="edgeLabel;html=1;align=center;verticalAlign=middle;resizable=0;points=[];" vertex="1" connectable="0" parent="amxvkPXWKd9jWRE6Z_6H-18">
          <mxGeometry x="-0.0429" y="2" relative="1" as="geometry">
            <mxPoint y="-8" as="offset" />
          </mxGeometry>
        </mxCell>
        <mxCell id="amxvkPXWKd9jWRE6Z_6H-11" value="" style="rounded=0;whiteSpace=wrap;html=1;" vertex="1" parent="1">
          <mxGeometry x="330" y="160" width="20" height="150" as="geometry" />
        </mxCell>
        <mxCell id="amxvkPXWKd9jWRE6Z_6H-13" style="edgeStyle=orthogonalEdgeStyle;rounded=0;orthogonalLoop=1;jettySize=auto;html=1;entryX=-0.05;entryY=0.111;entryDx=0;entryDy=0;entryPerimeter=0;" edge="1" parent="1" source="amxvkPXWKd9jWRE6Z_6H-12" target="amxvkPXWKd9jWRE6Z_6H-11">
          <mxGeometry relative="1" as="geometry">
            <Array as="points">
              <mxPoint x="160" y="170" />
              <mxPoint x="160" y="170" />
            </Array>
          </mxGeometry>
        </mxCell>
        <mxCell id="amxvkPXWKd9jWRE6Z_6H-14" value="Invest" style="edgeLabel;html=1;align=center;verticalAlign=middle;resizable=0;points=[];" vertex="1" connectable="0" parent="amxvkPXWKd9jWRE6Z_6H-13">
          <mxGeometry y="2" relative="1" as="geometry">
            <mxPoint as="offset" />
          </mxGeometry>
        </mxCell>
        <mxCell id="amxvkPXWKd9jWRE6Z_6H-12" value="" style="rounded=0;whiteSpace=wrap;html=1;" vertex="1" parent="1">
          <mxGeometry x="90" y="160" width="20" height="150" as="geometry" />
        </mxCell>
        <mxCell id="amxvkPXWKd9jWRE6Z_6H-15" style="edgeStyle=orthogonalEdgeStyle;rounded=0;orthogonalLoop=1;jettySize=auto;html=1;elbow=vertical;" edge="1" parent="1" source="amxvkPXWKd9jWRE6Z_6H-11" target="amxvkPXWKd9jWRE6Z_6H-11">
          <mxGeometry relative="1" as="geometry">
            <Array as="points">
              <mxPoint x="375" y="180" />
              <mxPoint x="365" y="230" />
            </Array>
          </mxGeometry>
        </mxCell>
        <mxCell id="amxvkPXWKd9jWRE6Z_6H-16" value="Create&amp;nbsp; Subscription" style="edgeLabel;html=1;align=center;verticalAlign=middle;resizable=0;points=[];" vertex="1" connectable="0" parent="amxvkPXWKd9jWRE6Z_6H-15">
          <mxGeometry x="-0.6308" y="2" relative="1" as="geometry">
            <mxPoint x="41" y="22" as="offset" />
          </mxGeometry>
        </mxCell>
        <mxCell id="amxvkPXWKd9jWRE6Z_6H-20" style="edgeStyle=orthogonalEdgeStyle;rounded=0;orthogonalLoop=1;jettySize=auto;html=1;entryX=0.95;entryY=0.88;entryDx=0;entryDy=0;entryPerimeter=0;dashed=1;" edge="1" parent="1" source="amxvkPXWKd9jWRE6Z_6H-17" target="amxvkPXWKd9jWRE6Z_6H-11">
          <mxGeometry relative="1" as="geometry">
            <Array as="points">
              <mxPoint x="400" y="292" />
              <mxPoint x="400" y="292" />
            </Array>
          </mxGeometry>
        </mxCell>
        <mxCell id="amxvkPXWKd9jWRE6Z_6H-21" value="return projectId" style="edgeLabel;html=1;align=center;verticalAlign=middle;resizable=0;points=[];" vertex="1" connectable="0" parent="amxvkPXWKd9jWRE6Z_6H-20">
          <mxGeometry x="0.1206" y="-3" relative="1" as="geometry">
            <mxPoint y="11" as="offset" />
          </mxGeometry>
        </mxCell>
        <mxCell id="amxvkPXWKd9jWRE6Z_6H-17" value="" style="rounded=0;whiteSpace=wrap;html=1;" vertex="1" parent="1">
          <mxGeometry x="615" y="250" width="20" height="60" as="geometry" />
        </mxCell>
        <mxCell id="amxvkPXWKd9jWRE6Z_6H-24" style="edgeStyle=orthogonalEdgeStyle;rounded=0;orthogonalLoop=1;jettySize=auto;html=1;entryX=1;entryY=0.5;entryDx=0;entryDy=0;dashed=1;" edge="1" parent="1" source="amxvkPXWKd9jWRE6Z_6H-23" target="amxvkPXWKd9jWRE6Z_6H-17">
          <mxGeometry relative="1" as="geometry" />
        </mxCell>
        <mxCell id="amxvkPXWKd9jWRE6Z_6H-23" value="Create project with Manual mode" style="shape=document;whiteSpace=wrap;html=1;boundedLbl=1;fillColor=#fff2cc;strokeColor=#d6b656;" vertex="1" parent="1">
          <mxGeometry x="710" y="240" width="120" height="80" as="geometry" />
        </mxCell>
      </root>
    </mxGraphModel>
  </diagram>
</mxfile>
